{"title":"Stonehearst.Asylum.2014.WEBrip.x264.AC3-TRD","uid":11282022,"size":2144821410,"categoryP":"video","categoryS":"movies","magnet":"?xt=urn:btih:a42806415215619a9269581afc469013d2e6efbb&amp;dn=Stonehearst.Asylum.2014.WEBrip.x264.AC3-TRD&amp;tr=udp%3A%2F%2Ftracker.openbittorrent.com%3A80&amp;tr=udp%3A%2F%2Fopen.demonii.com%3A1337&amp;tr=udp%3A%2F%2Ftracker.coppersurfer.tk%3A6969&amp;tr=udp%3A%2F%2Fexodus.desync.com%3A6969","seeders":0,"leechers":1,"uploader":"TvTeam","files":3,"time":1414229537,"description":" &lt;a href=&quot;http://www.torrenting.com&quot; rel=&quot;nofollow&quot; target=&quot;_NEW&quot;&gt;http://www.torrenting.com&lt;/a&gt;\n\nSign up is OPEN - for time being. Come and have fun.\n\n\n....General\nComplete name                            : Stonehearst.Asylum.2014.WEBrip.x264.AC3-TRD.mkv\nFormat                                   : Matroska\nFormat version                           : Version 2\nFile size                                : 2.00 GiB\nDuration                                 : 1h 52mn\nOverall bit rate                         : 2 538 Kbps\nEncoded date                             : UTC 2014-10-24 23:16:42\nWriting application                      : mkvmerge v7.0.0 ('Where We Going') 32bit built on Jun  9 2014 15:08:34\nWriting library                          : libebml v1.3.0 + libmatroska v1.4.1\n\nVideo\nID                                       : 1\nFormat                                   : AVC\nFormat/Info                              : Advanced Video Codec\nFormat profile                           : &lt;a class=&quot;__cf_email__&quot; href=&quot;/cdn-cgi/l/email-protection&quot; data-cfemail=&quot;c28aaba5aa828ef6ecf3&quot;&gt;[email&amp;#160;protected]&lt;/a&gt;&lt;script cf-hash='f9e31' type=&quot;text/javascript&quot;&gt;\n/* &lt;![CDATA[ */!function(){try{var t=&quot;currentScript&quot;in document?document.currentScript:function(){for(var t=document.getElementsByTagName(&quot;script&quot;),e=t.length;e--;)if(t[e].getAttribute(&quot;cf-hash&quot;))return t[e]}();if(t&amp;&amp;t.previousSibling){var e,r,n,i,c=t.previousSibling,a=c.getAttribute(&quot;data-cfemail&quot;);if(a){for(e=&quot;&quot;,r=parseInt(a.substr(0,2),16),n=2;a.length-n;n+=2)i=parseInt(a.substr(n,2),16)^r,e+=String.fromCharCode(i);e=document.createTextNode(e),c.parentNode.replaceChild(e,c)}}}catch(u){}}();/* ]]&gt; */&lt;/script&gt;\nFormat settings, CABAC                   : Yes\nFormat settings, ReFrames                : 4 frames\nCodec ID                                 : V_MPEG4/ISO/AVC\nDuration                                 : 1h 52mn\nBit rate                                 : 2 153 Kbps\nWidth                                    : 720 pixels\nHeight                                   : 304 pixels\nDisplay aspect ratio                     : 2.35:1\nFrame rate mode                          : Constant\nFrame rate                               : 23.976 fps\nColor space                              : YUV\nChroma subsampling                       : 4:2:0\nBit depth                                : 8 bits\nScan type                                : Progressive\nBits/(Pixel*Frame)                       : 0.410\nStream size                              : 1.66 GiB (83%)\nWriting library                          : x264 core 142 r2431 ac76440\nDefault                                  : Yes\nForced                                   : No\n\nAudio\nID                                       : 2\nFormat                                   : AC-3\nFormat/Info                              : Audio Coding 3\nMode extension                           : CM (complete main)\nFormat settings, Endianness              : Big\nCodec ID                                 : A_AC3\nDuration                                 : 1h 52mn\nBit rate mode                            : Constant\nBit rate                                 : 384 Kbps\nChannel(s)                               : 6 channels\nChannel positions                        : Front: L C R, Side: L R, LFE\nSampling rate                            : 48.0 KHz\nBit depth                                : 16 bits\nCompression mode                         : Lossy\nStream size                              : 309 MiB (15%)\nLanguage                                 : English\nDefault                                  : Yes\nForced                                   : No\n\nSource                   : 720p WEB-DL DD5.1 H264-PLAYNOW! Thank you\n\nEncoder                  : SuperFruity (TRD)","torrent":{"xt":"urn:btih:a42806415215619a9269581afc469013d2e6efbb","amp;dn":"Stonehearst.Asylum.2014.WEBrip.x264.AC3-TRD","amp;tr":["udp%3A%2F%2Ftracker.openbittorrent.com%3A80","udp%3A%2F%2Fopen.demonii.com%3A1337","udp%3A%2F%2Ftracker.coppersurfer.tk%3A6969","udp%3A%2F%2Fexodus.desync.com%3A6969"],"infoHash":"a42806415215619a9269581afc469013d2e6efbb","infoHashBuffer":{"type":"Buffer","data":[164,40,6,65,82,21,97,154,146,105,88,26,252,70,144,19,210,230,239,187]},"announce":[],"urlList":[]}}